The Great Consoler is Lev Kuleshov’s most personal film reflecting both the facts of his life and his thoughts about the place of the artist in contemporary reality. It was the only film in the Soviet cinema of those years that raised the question of what role a creative person played in society.

The film takes place in America in 1899, and in its principal plot depicts Bill Porter, who is the great consoler of the title, in prison. His writing skills earn him privileges from the governor and he is spared the inhumane treatment meted out to other prisoners. Porter is very much aware of the brutality around him but, mindful of his better conditions, refuses to write about prison life. He prefers to console his less-well-treated friends, and indeed all his readers, with excessively romantic fantasies in which good invariably triumphs.

One of these stories, "The Metamorphosis of James Valentine," creates an alter-ego for a wrongly imprisoned convict friend, who suffers the worst injustices of the prison and is dying of tuberculosis. The story flatters Valentine with an unrealistic degree of attractiveness, charm and intelligence. With his endless optimism, Porter tries to make this story come true by brokering a deal between the governor and Valentine, which will give the latter a pardon. The governor, however, deceives Valentine, who dies in prison. Furious, Valentine's friend, Al, starts a riot and the film closes with Porter's admission that his artistic philosophy has failed.

The film is nominally based on three text sources: a biography of the American author O Henry by his fellow prisoner, Al Jennings, Beating Back: Through the Shadows with O Henry, and two works by O Henry himself, "A Retrieved Reformation" and "An Unfinished Story." O Henry was the nom de plume of William Porter and there is a character who appears under both names in the film.[13] Al Jennings also plays a role in the character of Al.

   General
      Complete name : The Great Consoler.avi
      Format : AVI
      Format/Info : Audio Video Interleave
      File size : 1.22 GiB
      Duration : 1h 31mn
      Overall bit rate : 1 910 Kbps
      Writing application : VirtualDubMod 1.5.4.1 (build 2178/release)
      Writing library : VirtualDubMod build 2178/release
   Video #0
      ID : 0
      Format : MPEG-4 Visual
      Format profile : AdvancedSimple@L5
      Format settings, BVOP : Yes
      Format settings, QPel : No
      Format settings, GMC : No warppoints
      Format settings, Matrix : Custom
      Codec ID : XVID
      Codec ID/Hint : XviD
      Duration : 1h 31mn
      Bit rate : 1 711 Kbps
      Width : 640 pixels
      Height : 480 pixels
      Display aspect ratio : 4:3
      Frame rate : 25.000 fps
      Resolution : 24 bits
      Colorimetry : 4:2:0
      Scan type : Progressive
      Bits/(Pixel*Frame) : 0.223
      Stream size : 1.09 GiB (90%)
      Writing library : XviD 1.2.1 (UTC 2008-12-04)
   Audio #1
      ID : 1
      Format : AC-3
      Format/Info : Audio Coding 3
      Codec ID : 2000
      Duration : 1h 31mn
      Bit rate mode : Constant
      Bit rate : 192 Kbps
      Channel(s) : 2 channels
      Channel positions : L R
      Sampling rate : 48.0 KHz
      Stream size : 126 MiB (10%)
      Alignment : Split accross interleaves
      Interleave, duration : 96 ms (2.40 video frames)
      Interleave, preload duration : 96 ms
 
http://www.imdb.com/title/tt0024728/

Russian audio; English, French, German and Italian subtitles

Ported originally at KG by aglaya, whom we thank

Lev Kuleshov - Velikiy uteshitel aka The Great Consoler (1933) 